# xmcd
#
# Track frame offsets: 
#        150
#        10735
#        42183
#        53231
#        68016
#        83845
#        92626
#        106483
#        116556
#        130428
#        143072
#        152307
#        167667
#        189907
#        202274
#        216292
#        236097
#        249903
#        263335
#        280708
#        296523
#        310893
#        326427
#
# Disc length: 4544 seconds
#
# Revision: 0
# Processed by: cddbd v1.5.2PL0 Copyright (c) Steve Scherf et al.
# Submitted via: ExactAudioCopyFreeDBPlugin 1.0
#
DISCID=3c11be17
DTITLE=Various Artist - Nick Cave's Jukebox - the songs that inspired
DTITLE=the man
DYEAR=2009
DGENRE=Rock
TTITLE0=Gene Vincent - Cat Man
TTITLE1=Bob Dylan - Gotta Serve Somebody  [live]
TTITLE2=Screamin' Jay Hawkins - I Put a Spell on You
TTITLE3=Tex Ritter - Rye Whiskey
TTITLE4=Jimi Hendrix - Hey Joe
TTITLE5=Leadbelly - Black Betty
TTITLE6=John Lee Hooker - I'm Gonna Kill that Woman
TTITLE7=Johnny Cash - Wanted Man
TTITLE8=Johnny Cash - Man in Black  [live]
TTITLE9=Tommy McClennan - Bottle it Up and Go
TTITLE10=Elvis Presley - Blue Suede Shoes
TTITLE11=Blind Willie Johnson - I'm Gonna Run to the City of Refuge
TTITLE12=Neil Young - Helpless  [live]
TTITLE13=Little Willie John - Fever
TTITLE14=Leroy Carr - How Long, How Long Blues
TTITLE15=The Pogues - The Body of an American
TTITLE16=Everly Brothers - Down in the Willow Garden
TTITLE17=Mississippi John Hurt - Stack O' Lee
TTITLE18=Louvin Brothers - Knoxville Girl
TTITLE19=Dick Justice - Henry Lee
TTITLE20=Chubby Parker - King Kong Kitchie-Kitchie Ki-Me-O
TTITLE21=Louis Armstrong - Mack the Knife
TTITLE22=Memphis Slim - Grinder Man Blues
EXTD=
EXTT0=
EXTT1=
EXTT2=
EXTT3=
EXTT4=
EXTT5=
EXTT6=
EXTT7=
EXTT8=
EXTT9=
EXTT10=
EXTT11=
EXTT12=
EXTT13=
EXTT14=
EXTT15=
EXTT16=
EXTT17=
EXTT18=
EXTT19=
EXTT20=
EXTT21=
EXTT22=
PLAYORDER=
